<svg xmlns="http://www.w3.org/2000/svg" width="300" height="86" fill="none" viewBox="0 0 300 86"><path fill="#000" d="M288.889 86H11.111C5.003 86 0 81.16 0 75.25v-64.5C0 4.84 5.003 0 11.111 0H288.89C294.997 0 300 4.84 300 10.75v64.5c0 5.91-5.003 10.75-11.111 10.75"/><path fill="#A6A6A6" d="M288.889 1.723c5.144 0 9.33 4.05 9.33 9.027v64.5c0 4.977-4.186 9.027-9.33 9.027H11.111c-5.144 0-9.33-4.05-9.33-9.027v-64.5c0-4.977 4.186-9.027 9.33-9.027zm0-1.723H11.111C5.003 0 0 4.84 0 10.75v64.5C0 81.16 5.003 86 11.111 86H288.89c6.107 0 11.11-4.84 11.11-10.75v-64.5C300 4.84 294.997 0 288.889 0"/><path fill="url(#a)" d="M23.189 16.208c-.653.661-1.03 1.69-1.03 3.024v47.547c0 1.333.377 2.362 1.03 3.023l.161.146 27.539-26.634v-.628L23.35 16.052z"/><path fill="url(#b)" d="m60.058 52.197-9.17-8.883v-.629l9.181-8.882.206.116 10.872 5.985c3.103 1.698 3.103 4.493 0 6.203L60.275 52.08z"/><path fill="url(#c)" d="M60.275 52.081 50.889 43l-27.7 26.802c1.03 1.049 2.711 1.175 4.622.127z"/><path fill="url(#d)" d="M60.275 33.919 27.81 16.07c-1.911-1.037-3.592-.91-4.622.137L50.889 43z"/><path fill="#fff" stroke="#fff" stroke-miterlimit="10" stroke-width="0.16" d="M105.372 22.024c0 1.795-.555 3.233-1.65 4.305-1.258 1.272-2.897 1.911-4.905 1.911-1.92 0-3.559-.65-4.903-1.932-1.347-1.3-2.02-2.897-2.02-4.808q0-2.864 2.02-4.797c1.344-1.293 2.983-1.943 4.903-1.943.955 0 1.866.19 2.736.545.866.358 1.572.841 2.083 1.438l-1.161 1.134c-.892-1.018-2.106-1.52-3.658-1.52-1.4 0-2.614.472-3.645 1.426q-1.53 1.436-1.53 3.717c0 1.521.51 2.77 1.53 3.728 1.03.943 2.245 1.427 3.645 1.427 1.486 0 2.736-.484 3.722-1.438.65-.632 1.019-1.502 1.117-2.615h-4.84v-1.553h6.456c.078.335.1.66.1.975Zm10.242-5.386h-6.064v4.085h5.467v1.554h-5.467v4.085h6.064v1.583h-7.781v-12.89h7.781zm7.228 11.307h-1.717V16.638h-3.719v-1.583h9.158v1.583h-3.722zm10.35 0v-12.89h1.714v12.89zm9.311 0H140.8V16.638h-3.733v-1.583h9.169v1.583h-3.733zm21.072-1.658q-1.971 1.954-4.883 1.953c-1.953 0-3.581-.65-4.895-1.953q-1.965-1.952-1.964-4.787-.001-2.835 1.964-4.786c1.314-1.304 2.942-1.954 4.895-1.954 1.93 0 3.558.65 4.872 1.964 1.322 1.312 1.975 2.898 1.975 4.776q.001 2.835-1.964 4.787Zm-8.508-1.08c.988.964 2.191 1.448 3.625 1.448 1.422 0 2.636-.484 3.613-1.449.987-.965 1.487-2.204 1.487-3.706s-.5-2.741-1.487-3.706c-.977-.965-2.191-1.449-3.613-1.449-1.434 0-2.637.484-3.625 1.449-.987.965-1.487 2.204-1.487 3.706s.5 2.741 1.487 3.706Zm12.88 2.738v-12.89h2.083l6.478 10.025h.075l-.075-2.478v-7.547h1.714v12.89h-1.789l-6.783-10.52h-.075l.075 2.49v8.03z"/><path fill="#fff" d="M151.411 46.768c-5.219 0-9.483 3.843-9.483 9.145 0 5.26 4.264 9.143 9.483 9.143 5.231 0 9.495-3.883 9.495-9.142 0-5.303-4.264-9.146-9.495-9.146m0 14.687c-2.864 0-5.328-2.287-5.328-5.541 0-3.298 2.464-5.545 5.328-5.545s5.339 2.247 5.339 5.544c0 3.255-2.475 5.542-5.339 5.542m-20.692-14.687c-5.23 0-9.483 3.843-9.483 9.145 0 5.26 4.253 9.143 9.483 9.143 5.228 0 9.484-3.883 9.484-9.142 0-5.303-4.256-9.146-9.484-9.146m0 14.687c-2.866 0-5.338-2.287-5.338-5.541 0-3.298 2.472-5.545 5.338-5.545 2.864 0 5.328 2.247 5.328 5.544 0 3.255-2.464 5.542-5.328 5.542m-24.622-11.884v3.886h9.592c-.281 2.172-1.031 3.768-2.181 4.88-1.4 1.344-3.58 2.836-7.411 2.836-5.903 0-10.525-4.61-10.525-10.32 0-5.711 4.622-10.32 10.525-10.32 3.192 0 5.514 1.207 7.228 2.77l2.831-2.738c-2.398-2.214-5.587-3.915-10.059-3.915-8.094 0-14.897 6.372-14.897 14.203s6.803 14.203 14.897 14.203c4.375 0 7.661-1.386 10.245-3.988 2.647-2.561 3.472-6.162 3.472-9.07 0-.903-.078-1.734-.217-2.427zm100.684 3.013c-.781-2.046-3.189-5.816-8.095-5.816-4.861 0-8.908 3.706-8.908 9.145 0 5.123 4.005 9.143 9.375 9.143 4.341 0 6.847-2.56 7.878-4.052l-3.223-2.078c-1.075 1.521-2.539 2.53-4.655 2.53-2.103 0-3.611-.934-4.578-2.772l12.642-5.06zm-12.889 3.045c-.109-3.526 2.83-5.332 4.936-5.332 1.65 0 3.05.798 3.516 1.94zM183.617 64.5h4.155V37.625h-4.155zm-6.806-15.695h-.139c-.933-1.07-2.714-2.037-4.969-2.037-4.734 0-9.061 4.02-9.061 9.175 0 5.125 4.327 9.113 9.061 9.113 2.255 0 4.036-.975 4.969-2.077h.139v1.311c0 3.497-1.93 5.375-5.044 5.375-2.539 0-4.114-1.773-4.764-3.265l-3.614 1.46c1.042 2.424 3.8 5.407 8.378 5.407 4.872 0 8.983-2.774 8.983-9.522v-16.42h-3.939zm-4.753 12.65c-2.864 0-5.261-2.32-5.261-5.512 0-3.222 2.397-5.574 5.261-5.574 2.823 0 5.048 2.352 5.048 5.574 0 3.193-2.225 5.512-5.048 5.512m54.178-23.83h-9.939V64.5h4.145V54.317h5.794c4.603 0 9.117-3.222 9.117-8.347 0-5.123-4.525-8.345-9.117-8.345m.108 12.954h-5.902v-9.216h5.902c3.095 0 4.862 2.486 4.862 4.607 0 2.08-1.767 4.609-4.862 4.609m25.62-3.862c-2.995 0-6.109 1.28-7.389 4.114l3.678 1.492c.791-1.492 2.247-1.975 3.786-1.975 2.15 0 4.33 1.25 4.364 3.456v.282c-.75-.42-2.356-1.04-4.331-1.04-3.961 0-7.997 2.11-7.997 6.047 0 3.601 3.244 5.92 6.892 5.92 2.788 0 4.327-1.217 5.294-2.633h.142v2.077h4.003v-10.31c0-4.764-3.678-7.43-8.442-7.43m-.5 14.727c-1.356 0-3.245-.65-3.245-2.276 0-2.08 2.356-2.878 4.395-2.878 1.825 0 2.68.39 3.789.903-.325 2.488-2.539 4.251-4.939 4.251m23.525-14.139-4.764 11.65h-.142l-4.925-11.65h-4.469l7.4 16.281-4.222 9.06h4.33l11.403-25.34zM237.63 64.5h4.156V37.625h-4.156z"/><defs><linearGradient id="a" x1="48.4438" x2="12.3813" y1="67.2742" y2="30.0003" gradientUnits="userSpaceOnUse"><stop stop-color="#00A0FF"/><stop offset="0.0066" stop-color="#00A1FF"/><stop offset="0.2601" stop-color="#00BEFF"/><stop offset="0.5122" stop-color="#00D2FF"/><stop offset="0.7604" stop-color="#00DFFF"/><stop offset="1" stop-color="#00E3FF"/></linearGradient><linearGradient id="b" x1="75.1875" x2="21.4166" y1="42.997" y2="42.997" gradientUnits="userSpaceOnUse"><stop stop-color="#FFE000"/><stop offset="0.4087" stop-color="#FFBD00"/><stop offset="0.7754" stop-color="orange"/><stop offset="1" stop-color="#FF9C00"/></linearGradient><linearGradient id="c" x1="55.1711" x2="6.26741" y1="38.0634" y2="-12.483" gradientUnits="userSpaceOnUse"><stop stop-color="#FF3A44"/><stop offset="1" stop-color="#C31162"/></linearGradient><linearGradient id="d" x1="16.2162" x2="38.0539" y1="85.6212" y2="63.0501" gradientUnits="userSpaceOnUse"><stop stop-color="#32A071"/><stop offset="0.0685" stop-color="#2DA771"/><stop offset="0.4762" stop-color="#15CF74"/><stop offset="0.8009" stop-color="#06E775"/><stop offset="1" stop-color="#00F076"/></linearGradient></defs></svg>