<svg aria-hidden="true" style="position: absolute; width: 0; height: 0; overflow: hidden;" version="1.1" xmlns="http://www.w3.org/2000/svg" xmlns:xlink="http://www.w3.org/1999/xlink">
<defs>
<symbol id="icon-Arrow-left" viewBox="0 0 32 32">
<path  stroke-linejoin="round" stroke-linecap="round" stroke-miterlimit="4" stroke-width="1.6" d="M7.2 16h17.6M7.2 16l5.029-4.8M7.2 16l5.029 4.8"></path>
</symbol>
<symbol id="icon-Burgermenu" viewBox="0 0 32 32">
<path d="M10 11.2h12c0.221 0 0.4 0.179 0.4 0.4s-0.179 0.4-0.4 0.4h-12c-0.221 0-0.4-0.179-0.4-0.4s0.179-0.4 0.4-0.4z"></path>
<path d="M10 15.2h12c0.221 0 0.4 0.179 0.4 0.4s-0.179 0.4-0.4 0.4h-12c-0.221 0-0.4-0.179-0.4-0.4s0.179-0.4 0.4-0.4z"></path>
<path d="M10 19.2h12c0.221 0 0.4 0.179 0.4 0.4s-0.179 0.4-0.4 0.4h-12c-0.221 0-0.4-0.179-0.4-0.4s0.179-0.4 0.4-0.4z"></path>
</symbol>
<symbol id="icon-Close" viewBox="0 0 32 32">
<path d="M11.474 18.917l8.485-8.485c0.156-0.156 0.409-0.156 0.566 0s0.156 0.409 0 0.566l-8.485 8.485c-0.156 0.156-0.409 0.156-0.566 0s-0.156-0.409 0-0.566z"></path>
<path d="M12.040 10.683l8.485 8.485c0.156 0.156 0.156 0.409 0 0.566s-0.409 0.156-0.566 0l-8.485-8.485c-0.156-0.156-0.156-0.409 0-0.566s0.409-0.156 0.566 0z"></path>
</symbol>
<symbol id="icon-Star" viewBox="0 0 33 32">
<path d="M15.060 3.824c0.147-0.252 0.357-0.461 0.61-0.606s0.539-0.222 0.83-0.222 0.578 0.076 0.83 0.222c0.253 0.145 0.463 0.354 0.61 0.606l3.727 6.397 7.237 1.568c0.285 0.062 0.548 0.197 0.764 0.393s0.377 0.444 0.467 0.721c0.090 0.277 0.106 0.573 0.046 0.858s-0.194 0.55-0.388 0.767l-4.933 5.521 0.747 7.367c0.029 0.29-0.018 0.583-0.137 0.849s-0.306 0.496-0.542 0.668c-0.236 0.171-0.513 0.278-0.803 0.309s-0.583-0.015-0.85-0.132l-6.776-2.987-6.776 2.987c-0.267 0.118-0.56 0.163-0.85 0.132s-0.567-0.137-0.803-0.309c-0.236-0.171-0.423-0.402-0.542-0.668s-0.166-0.559-0.137-0.849l0.747-7.367-4.933-5.52c-0.194-0.217-0.328-0.482-0.389-0.767s-0.045-0.581 0.046-0.859 0.251-0.526 0.467-0.722c0.216-0.196 0.48-0.331 0.765-0.393l7.237-1.568 3.727-6.397z"></path>
</symbol>
</defs>
</svg>
