<svg width="300" height="86" viewBox="0 0 300 86" fill="none" xmlns="http://www.w3.org/2000/svg">
<path d="M288.889 86H11.1111C5.00278 86 0 81.1598 0 75.25V10.75C0 4.84018 5.00278 -1.79121e-07 11.1111 -1.79121e-07H288.889C294.997 -1.79121e-07 300 4.84018 300 10.75V75.25C300 81.1598 294.997 86 288.889 86Z" fill="black"/>
<path d="M288.889 1.72269C294.033 1.72269 298.219 5.77275 298.219 10.75V75.25C298.219 80.2272 294.033 84.2773 288.889 84.2773H11.1111C5.96667 84.2773 1.78056 80.2272 1.78056 75.25V10.75C1.78056 5.77275 5.96667 1.72269 11.1111 1.72269H288.889ZM288.889 -1.79121e-07H11.1111C5.00278 -1.79121e-07 0 4.84018 0 10.75V75.25C0 81.1598 5.00278 86 11.1111 86H288.889C294.997 86 300 81.1598 300 75.25V10.75C300 4.84018 294.997 -1.79121e-07 288.889 -1.79121e-07Z" fill="#A6A6A6"/>
<path d="M23.1889 16.2083C22.5361 16.8694 22.1583 17.8988 22.1583 19.2318V66.779C22.1583 68.112 22.5361 69.1413 23.1889 69.8024L23.35 69.9476L50.8889 43.3144V42.6856L23.35 16.0524L23.1889 16.2083Z" fill="url(#paint0_linear_2001_171)"/>
<path d="M60.0582 52.1966L50.8888 43.3144V42.6855L60.0693 33.8033L60.2749 33.9189L71.1471 39.904C74.2499 41.6025 74.2499 44.3975 71.1471 46.1067L60.2749 52.081L60.0582 52.1966Z" fill="url(#paint1_linear_2001_171)"/>
<path d="M60.2749 52.0811L50.8888 43L23.1888 69.8024C24.2194 70.8506 25.9 70.9769 27.8111 69.9288L60.2749 52.0811Z" fill="url(#paint2_linear_2001_171)"/>
<path d="M60.2749 33.9189L27.8111 16.0713C25.9 15.0339 24.2194 15.1602 23.1888 16.2083L50.8888 43L60.2749 33.9189Z" fill="url(#paint3_linear_2001_171)"/>
<path d="M105.372 22.0241C105.372 23.8193 104.817 25.2571 103.722 26.3295C102.464 27.6006 100.825 28.2403 98.8166 28.2403C96.8972 28.2403 95.2583 27.5899 93.9138 26.308C92.5666 25.0072 91.8944 23.4108 91.8944 21.5C91.8944 19.5892 92.5666 17.9928 93.9138 16.7028C95.2583 15.4101 96.8972 14.7598 98.8166 14.7598C99.7722 14.7598 100.683 14.9506 101.553 15.3053C102.419 15.6628 103.125 16.1465 103.636 16.7431L102.475 17.8773C101.583 16.8587 100.369 16.3561 98.8166 16.3561C97.4166 16.3561 96.2027 16.8291 95.1722 17.7832C94.1527 18.74 93.6416 19.9789 93.6416 21.5C93.6416 23.0211 94.1527 24.2708 95.1722 25.2276C96.2027 26.1709 97.4166 26.6546 98.8166 26.6546C100.303 26.6546 101.553 26.1709 102.539 25.2168C103.189 24.5853 103.558 23.7145 103.656 22.6019H98.8166V21.0485H105.272C105.35 21.3845 105.372 21.7096 105.372 22.0241Z" fill="white" stroke="white" stroke-width="0.16" stroke-miterlimit="10"/>
<path d="M115.614 16.6383H109.55V20.7233H115.017V22.2767H109.55V26.3617H115.614V27.9446H107.833V15.0554H115.614V16.6383Z" fill="white" stroke="white" stroke-width="0.16" stroke-miterlimit="10"/>
<path d="M122.842 27.9446H121.125V16.6383H117.406V15.0554H126.564V16.6383H122.842V27.9446Z" fill="white" stroke="white" stroke-width="0.16" stroke-miterlimit="10"/>
<path d="M133.192 27.9446V15.0554H134.906V27.9446H133.192Z" fill="white" stroke="white" stroke-width="0.16" stroke-miterlimit="10"/>
<path d="M142.503 27.9446H140.8V16.6383H137.067V15.0554H146.236V16.6383H142.503V27.9446Z" fill="white" stroke="white" stroke-width="0.16" stroke-miterlimit="10"/>
<path d="M163.575 26.2865C162.261 27.5899 160.633 28.2403 158.692 28.2403C156.739 28.2403 155.111 27.5899 153.797 26.2865C152.486 24.9857 151.833 23.3893 151.833 21.5C151.833 19.6107 152.486 18.0143 153.797 16.7136C155.111 15.4101 156.739 14.7598 158.692 14.7598C160.622 14.7598 162.25 15.4101 163.564 16.7243C164.886 18.0358 165.539 19.6215 165.539 21.5C165.539 23.3893 164.886 24.9857 163.575 26.2865ZM155.067 25.2061C156.055 26.1709 157.258 26.6546 158.692 26.6546C160.114 26.6546 161.328 26.1709 162.305 25.2061C163.292 24.2413 163.792 23.0023 163.792 21.5C163.792 19.9977 163.292 18.7588 162.305 17.794C161.328 16.8291 160.114 16.3454 158.692 16.3454C157.258 16.3454 156.055 16.8291 155.067 17.794C154.08 18.7588 153.58 19.9977 153.58 21.5C153.58 23.0023 154.08 24.2413 155.067 25.2061Z" fill="white" stroke="white" stroke-width="0.16" stroke-miterlimit="10"/>
<path d="M167.947 27.9446V15.0554H170.03L176.508 25.0797H176.583L176.508 22.6019V15.0554H178.222V27.9446H176.433L169.65 17.4257H169.575L169.65 19.9144V27.9446H167.947Z" fill="white" stroke="white" stroke-width="0.16" stroke-miterlimit="10"/>
<path d="M151.411 46.7679C146.192 46.7679 141.928 50.611 141.928 55.9135C141.928 61.1729 146.192 65.0564 151.411 65.0564C156.642 65.0564 160.906 61.1729 160.906 55.9135C160.906 50.611 156.642 46.7679 151.411 46.7679ZM151.411 61.4551C148.547 61.4551 146.083 59.168 146.083 55.9135C146.083 52.6159 148.547 50.3692 151.411 50.3692C154.275 50.3692 156.75 52.6159 156.75 55.9135C156.75 59.168 154.275 61.4551 151.411 61.4551ZM130.719 46.7679C125.489 46.7679 121.236 50.611 121.236 55.9135C121.236 61.1729 125.489 65.0564 130.719 65.0564C135.947 65.0564 140.203 61.1729 140.203 55.9135C140.203 50.611 135.947 46.7679 130.719 46.7679ZM130.719 61.4551C127.853 61.4551 125.381 59.168 125.381 55.9135C125.381 52.6159 127.853 50.3692 130.719 50.3692C133.583 50.3692 136.047 52.6159 136.047 55.9135C136.047 59.168 133.583 61.4551 130.719 61.4551ZM106.097 49.571V53.4571H115.689C115.408 55.6286 114.658 57.225 113.508 58.3376C112.108 59.6814 109.928 61.1729 106.097 61.1729C100.194 61.1729 95.5722 56.5639 95.5722 50.8529C95.5722 45.142 100.194 40.5329 106.097 40.5329C109.289 40.5329 111.611 41.7396 113.325 43.3037L116.156 40.5652C113.758 38.3507 110.569 36.6495 106.097 36.6495C98.0028 36.6495 91.2 43.0215 91.2 50.8529C91.2 58.6843 98.0028 65.0564 106.097 65.0564C110.472 65.0564 113.758 63.6696 116.342 61.0681C118.989 58.5069 119.814 54.9057 119.814 51.9978C119.814 51.0948 119.736 50.2644 119.597 49.571H106.097ZM206.781 52.5837C206 50.5385 203.592 46.7679 198.686 46.7679C193.825 46.7679 189.778 50.474 189.778 55.9135C189.778 61.0359 193.783 65.0564 199.153 65.0564C203.494 65.0564 206 62.4952 207.031 61.0036L203.808 58.9262C202.733 60.4473 201.269 61.4551 199.153 61.4551C197.05 61.4551 195.542 60.5225 194.575 58.6843L207.217 53.6237L206.781 52.5837ZM193.892 55.6286C193.783 52.1026 196.722 50.2966 198.828 50.2966C200.478 50.2966 201.878 51.0948 202.344 52.237L193.892 55.6286ZM183.617 64.5H187.772V37.625H183.617V64.5ZM176.811 48.805H176.672C175.739 47.7354 173.958 46.7679 171.703 46.7679C166.969 46.7679 162.642 50.7884 162.642 55.943C162.642 61.0681 166.969 65.0564 171.703 65.0564C173.958 65.0564 175.739 64.0808 176.672 62.9789H176.811V64.2904C176.811 67.7869 174.881 69.6654 171.767 69.6654C169.228 69.6654 167.653 67.8917 167.003 66.4001L163.389 67.8594C164.431 70.2835 167.189 73.2667 171.767 73.2667C176.639 73.2667 180.75 70.4932 180.75 63.7449V47.3242H176.811V48.805ZM172.058 61.4551C169.194 61.4551 166.797 59.1358 166.797 55.943C166.797 52.7207 169.194 50.3692 172.058 50.3692C174.881 50.3692 177.106 52.7207 177.106 55.943C177.106 59.1358 174.881 61.4551 172.058 61.4551ZM226.236 37.625H216.297V64.5H220.442V54.3171H226.236C230.839 54.3171 235.353 51.0948 235.353 45.9697C235.353 40.8474 230.828 37.625 226.236 37.625ZM226.344 50.5788H220.442V41.3634H226.344C229.439 41.3634 231.206 43.8493 231.206 45.9697C231.206 48.0499 229.439 50.5788 226.344 50.5788ZM251.964 46.7169C248.969 46.7169 245.855 47.9961 244.575 50.8314L248.253 52.323C249.044 50.8314 250.5 50.3477 252.039 50.3477C254.189 50.3477 256.369 51.5974 256.403 53.8038V54.086C255.653 53.6667 254.047 53.0459 252.072 53.0459C248.111 53.0459 244.075 55.1556 244.075 59.0928C244.075 62.694 247.319 65.0134 250.967 65.0134C253.755 65.0134 255.294 63.7959 256.261 62.3796H256.403V64.457H260.406V54.1478C260.406 49.3829 256.728 46.7169 251.964 46.7169ZM251.464 61.4444C250.108 61.4444 248.219 60.794 248.219 59.168C248.219 57.0879 250.575 56.2897 252.614 56.2897C254.439 56.2897 255.294 56.6794 256.403 57.1927C256.078 59.6814 253.864 61.4444 251.464 61.4444ZM274.989 47.3054L270.225 58.9557H270.083L265.158 47.3054H260.689L268.089 63.5863L263.867 72.6459H268.197L279.6 47.3054H274.989ZM237.63 64.5H241.786V37.625H237.63V64.5Z" fill="white"/>
<defs>
<linearGradient id="paint0_linear_2001_171" x1="48.4438" y1="67.2742" x2="12.3813" y2="30.0003" gradientUnits="userSpaceOnUse">
<stop stop-color="#00A0FF"/>
<stop offset="0.0066" stop-color="#00A1FF"/>
<stop offset="0.2601" stop-color="#00BEFF"/>
<stop offset="0.5122" stop-color="#00D2FF"/>
<stop offset="0.7604" stop-color="#00DFFF"/>
<stop offset="1" stop-color="#00E3FF"/>
</linearGradient>
<linearGradient id="paint1_linear_2001_171" x1="75.1875" y1="42.997" x2="21.4166" y2="42.997" gradientUnits="userSpaceOnUse">
<stop stop-color="#FFE000"/>
<stop offset="0.4087" stop-color="#FFBD00"/>
<stop offset="0.7754" stop-color="#FFA500"/>
<stop offset="1" stop-color="#FF9C00"/>
</linearGradient>
<linearGradient id="paint2_linear_2001_171" x1="55.1711" y1="38.0634" x2="6.26741" y2="-12.483" gradientUnits="userSpaceOnUse">
<stop stop-color="#FF3A44"/>
<stop offset="1" stop-color="#C31162"/>
</linearGradient>
<linearGradient id="paint3_linear_2001_171" x1="16.2162" y1="85.6212" x2="38.0539" y2="63.0501" gradientUnits="userSpaceOnUse">
<stop stop-color="#32A071"/>
<stop offset="0.0685" stop-color="#2DA771"/>
<stop offset="0.4762" stop-color="#15CF74"/>
<stop offset="0.8009" stop-color="#06E775"/>
<stop offset="1" stop-color="#00F076"/>
</linearGradient>
</defs>
</svg>
